HIERARCHY
ROOT joint_Root
{
	OFFSET 0.0 0.0 0.0
	CHANNELS 6 Xposition Yposition Zposition Zrotation Xrotation Yrotation 
	JOINT Hips
	{
		OFFSET -0.726466 93.3139 -2.00062
		CHANNELS 6 Xposition Yposition Zposition Zrotation Xrotation Yrotation 
		JOINT Spine
		{
			OFFSET 15.7357 0.0 0.0
			CHANNELS 6 Xposition Yposition Zposition Zrotation Xrotation Yrotation 
			JOINT Chest
			{
				OFFSET 8.98455 -0.406207 0.0
				CHANNELS 6 Xposition Yposition Zposition Zrotation Xrotation Yrotation 
				JOINT Neck
				{
					OFFSET 16.3773 0.0 0.0
					CHANNELS 6 Xposition Yposition Zposition Zrotation Xrotation Yrotation 
					JOINT Head
					{
						OFFSET 6.45672 0.0 0.0
						CHANNELS 6 Xposition Yposition Zposition Zrotation Xrotation Yrotation 
						End Site
						{
							OFFSET 0.0 0.0 0.0
						}
					}
				}
				JOINT Shoulder_L
				{
					OFFSET 12.9942 -0.242716 4.98039
					CHANNELS 6 Xposition Yposition Zposition Zrotation Xrotation Yrotation 
					JOINT UpperArm_L
					{
						OFFSET 5.34809 0.0 0.0
						CHANNELS 6 Xposition Yposition Zposition Zrotation Xrotation Yrotation 
						JOINT LowerArm_L
						{
							OFFSET 24.3286 1.87007e-05 0.0
							CHANNELS 6 Xposition Yposition Zposition Zrotation Xrotation Yrotation 
							JOINT Hand_L
							{
								OFFSET 22.2916 0.0 0.0
								CHANNELS 6 Xposition Yposition Zposition Zrotation Xrotation Yrotation 
								End Site
								{
									OFFSET 0.0 0.0 0.0
								}
							}
						}
					}
				}
				JOINT Shoulder_R
				{
					OFFSET 12.9945 -0.242716 -4.98039
					CHANNELS 6 Xposition Yposition Zposition Zrotation Xrotation Yrotation 
					JOINT UpperArm_R
					{
						OFFSET -5.34813 0.0 0.0
						CHANNELS 6 Xposition Yposition Zposition Zrotation Xrotation Yrotation 
						JOINT LowerArm_R
						{
							OFFSET -24.3289 0.000322201 0.0
							CHANNELS 6 Xposition Yposition Zposition Zrotation Xrotation Yrotation 
							JOINT Hand_R
							{
								OFFSET -22.2915 -0.000108084 0.0
								CHANNELS 6 Xposition Yposition Zposition Zrotation Xrotation Yrotation 
								End Site
								{
									OFFSET 0.0 0.0 0.0
								}
							}
						}
					}
				}
			}
		}
		JOINT UpperLeg_L
		{
			OFFSET -2.19248 -6.46944 0.0
			CHANNELS 6 Xposition Yposition Zposition Zrotation Xrotation Yrotation 
			JOINT LowerLeg_L
			{
				OFFSET 39.0811 0.0 -1.23785e-05
				CHANNELS 6 Xposition Yposition Zposition Zrotation Xrotation Yrotation 
				JOINT Foot_L
				{
					OFFSET 40.9854 0.0 -1.26872e-05
					CHANNELS 6 Xposition Yposition Zposition Zrotation Xrotation Yrotation 
					JOINT Toes_L
					{
						OFFSET 11.7543 0.0 0.0
						CHANNELS 6 Xposition Yposition Zposition Zrotation Xrotation Yrotation 
						End Site
						{
							OFFSET 0.0 0.0 0.0
						}
					}
				}
			}
		}
		JOINT UpperLeg_R
		{
			OFFSET -2.19251 6.46944 0.0
			CHANNELS 6 Xposition Yposition Zposition Zrotation Xrotation Yrotation 
			JOINT LowerLeg_R
			{
				OFFSET -39.0811 -0.00228153 -0.0401928
				CHANNELS 6 Xposition Yposition Zposition Zrotation Xrotation Yrotation 
				JOINT Foot_R
				{
					OFFSET -40.9854 0.0 0.0
					CHANNELS 6 Xposition Yposition Zposition Zrotation Xrotation Yrotation 
					JOINT Toes_R
					{
						OFFSET -11.7543 0.0 0.0
						CHANNELS 6 Xposition Yposition Zposition Zrotation Xrotation Yrotation 
						End Site
						{
							OFFSET 0.0 0.0 0.0
						}
					}
				}
			}
		}
	}
}
MOTION
Frames:	4
Frame Time:	0.0333333
0.000000 0.000000 0.000000 0.000000 0.000000 -0.000000 -1.115120 92.842700 -0.632495 88.870500 -4.297110 2.656320 15.735700 0.000005 -0.000001 96.006400 86.248400 -95.912400 8.984550 -0.406207 -0.000000 -0.304536 0.778337 0.190122 16.377300 -0.000001 -0.000001 3.401620 -2.143010 3.769830 6.456720 -0.000001 -0.000000 7.341740 -0.995361 -3.736900 12.994200 -0.242716 4.980390 -90.605200 1.863060 -72.000000 5.348090 -0.000007 -0.000001 -68.385400 39.976700 -10.712400 24.328600 0.000019 0.000005 3.131180 7.831270 -21.874100 22.291600 -0.000001 0.000005 3.641350 5.489180 -6.103650 12.994500 -0.242716 -4.980390 87.596200 8.256610 -73.705300 -5.348130 -0.000001 -0.000004 -65.625100 35.192100 -12.139100 -24.328900 0.000322 -0.000009 4.659050 13.223200 -19.613600 -22.291500 -0.000108 -0.000004 7.008520 5.315130 -0.356323 -2.192480 -6.469440 -0.000000 -175.701000 -8.439150 -1.189650 39.081100 -0.000007 -0.000012 -0.080255 0.254052 17.531200 40.985400 -0.000006 -0.000013 -1.458390 1.821170 -63.600100 11.754300 -0.000000 0.000003 -0.000001 -0.000011 -16.577900 -2.192510 6.469440 -0.000001 179.180000 9.483050 -178.768000 -39.081100 -0.002282 -0.040193 -0.045247 0.188604 14.443700 -40.985400 0.000008 0.000006 1.590550 7.696480 -63.361200 -11.754300 -0.000006 -0.000006 -0.003766 -0.048980 -18.565400
0.000000 0.000000 0.000000 0.000000 0.000000 -0.000000 -1.100570 92.850600 -0.658414 88.884400 -4.275240 2.669950 15.735700 0.000005 -0.000001 95.998700 86.248600 -95.944400 8.984550 -0.406207 -0.000000 -0.304741 0.780068 0.110553 16.377300 -0.000001 -0.000001 3.439020 -2.119600 3.727040 6.456720 -0.000001 -0.000000 7.401150 -1.027310 -3.648050 12.994200 -0.242716 4.980390 -90.581800 1.789150 -71.984900 5.348090 -0.000007 -0.000001 -68.448500 39.873700 -10.741900 24.328600 0.000019 0.000005 3.099400 7.763290 -21.843200 22.291600 -0.000001 0.000005 3.757210 5.490570 -6.158340 12.994500 -0.242716 -4.980390 87.600900 8.221850 -73.670800 -5.348130 -0.000001 -0.000004 -65.567900 33.842500 -12.100800 -24.328900 0.000322 -0.000009 5.294640 13.807100 -21.224400 -22.291500 -0.000108 -0.000004 6.066670 5.308770 -0.173880 -2.192480 -6.469440 -0.000000 -175.726000 -8.416680 -1.167620 39.081100 -0.000007 -0.000012 -0.079142 0.251482 17.468900 40.985400 -0.000006 -0.000013 -1.445420 1.835030 -63.550700 11.754300 -0.000000 0.000003 -0.000001 -0.000012 -16.577900 -2.192510 6.469440 -0.000001 179.157000 9.550880 -178.761000 -39.081100 -0.002282 -0.040193 -0.045583 0.190287 14.416200 -40.985400 0.000008 0.000006 1.616450 7.711450 -63.330700 -11.754300 -0.000006 -0.000006 -0.003277 -0.043700 -18.350400
0.000000 0.000000 0.000000 0.000000 0.000000 -0.000000 -1.071680 92.850300 -0.685953 88.883400 -4.409320 2.688600 15.735700 0.000005 -0.000001 96.160500 86.232300 -96.156100 8.984550 -0.406207 -0.000000 -0.274156 0.808154 0.010703 16.377300 -0.000001 -0.000001 3.460520 -2.090300 3.714960 6.456720 -0.000001 -0.000000 7.413410 -1.014220 -3.602470 12.994200 -0.242716 4.980390 -90.544600 1.666660 -71.902400 5.348090 -0.000007 -0.000001 -68.537900 39.700100 -10.780400 24.328600 0.000019 0.000005 3.087230 7.727740 -21.855500 22.291600 -0.000001 0.000005 3.751840 5.490280 -6.146920 12.994500 -0.242716 -4.980390 87.556200 8.278020 -73.489000 -5.348130 -0.000001 -0.000004 -65.493600 30.480100 -12.043800 -24.328900 0.000322 -0.000009 6.367740 13.696300 -25.241700 -22.291500 -0.000108 -0.000004 5.102050 5.282810 0.550065 -2.192480 -6.469440 -0.000000 -175.741000 -8.569120 -1.153940 39.081100 -0.000007 -0.000012 -0.078645 0.249577 17.490300 40.985400 -0.000006 -0.000013 -1.425460 1.801070 -63.559300 11.754300 -0.000000 0.000003 -0.000000 -0.000002 -16.577600 -2.192510 6.469440 -0.000001 179.142000 9.427120 -178.796000 -39.081100 -0.002282 -0.040193 -0.045598 0.189719 14.461600 -40.985400 0.000008 0.000006 1.608000 7.741510 -63.323100 -11.754300 -0.000006 -0.000006 -0.003532 -0.046478 -18.463500
0.000000 0.000000 0.000000 0.000000 0.000000 -0.000000 -1.021090 92.860500 -0.722581 88.851200 -4.644430 2.657800 15.735700 0.000005 -0.000001 96.012100 86.257300 -96.037600 8.984550 -0.406207 -0.000000 -0.321583 0.785635 -0.048728 16.377300 -0.000001 -0.000001 3.634200 -2.037630 3.680000 6.456720 -0.000001 -0.000000 7.396570 -0.915142 -3.659790 12.994200 -0.242716 4.980390 -90.511100 1.555970 -71.814800 5.348090 -0.000007 -0.000001 -68.719700 39.518600 -10.625000 24.328600 0.000019 0.000005 3.093290 7.719690 -21.915000 22.291600 -0.000001 0.000005 3.731990 5.490510 -6.155630 12.994500 -0.242716 -4.980390 87.521100 8.202490 -73.120100 -5.348130 -0.000001 -0.000004 -65.030400 26.686300 -12.612700 -24.328900 0.000322 -0.000009 6.656980 11.090600 -31.257600 -22.291500 -0.000108 -0.000004 5.626730 5.280850 0.605004 -2.192480 -6.469440 -0.000000 -175.747000 -8.735470 -1.163260 39.081100 -0.000007 -0.000012 -0.077957 0.247871 17.458700 40.985400 -0.000006 -0.000013 -1.401830 1.718320 -63.538100 11.754300 -0.000000 0.000003 -0.000001 -0.000010 -16.577900 -2.192510 6.469440 -0.000001 179.166000 9.258410 -178.860000 -39.081100 -0.002282 -0.040193 -0.044219 0.184902 14.422100 -40.985400 0.000008 0.000006 1.686910 7.799080 -63.264300 -11.754300 -0.000006 -0.000006 -0.003435 -0.045432 -18.420900
